<svg width="186" height="187" viewBox="0 0 186 187" fill="none" xmlns="http://www.w3.org/2000/svg">
<path fill-rule="evenodd" clip-rule="evenodd" d="M68 91.3337C31.3621 90.2303 2 60.1828 2 23.2774C2 11.5262 11.6383 2 23.3895 2C61.6325 2 93.0363 32.8355 93.3728 71H94V70.0878C94 32.4839 124.484 2 162.088 2C173.839 2 183.365 11.6383 183.365 23.3895C183.365 61.0849 153.406 92.1355 116 93.3393V96H116.288C153.892 96 184.375 126.484 184.375 164.088C184.375 175.839 174.737 185.365 162.986 185.365C124.621 185.365 93.1391 154.333 93.0004 116H91.3652V117.288C91.3652 154.892 60.8813 185.376 23.2775 185.376C11.5263 185.376 2.00003 175.737 2.00003 163.986C2.00003 126.75 31.2325 95.9983 68 94.0935V91.3337Z" fill="#DAC2FF"/>
<path fill-rule="evenodd" clip-rule="evenodd" d="M122.82 91.5362H123.824V91.813H128.801C160.213 85.0102 183.764 56.8117 183.764 23.3895C183.764 11.6383 174.238 2 162.487 2C127.56 2 98.7751 28.2985 94.8541 62.1741H95.2974V64.0137C95.2974 65.3476 94.2161 66.4289 92.8822 66.4289C91.5483 66.4289 90.467 65.3476 90.467 64.0137V61.94H90.9327C86.9563 28.1852 58.2485 2.00001 23.4249 2.00001C11.6926 2.00001 2.18173 11.519 2.18173 23.2513C2.18173 57.6892 27.7488 86.1775 60.9372 90.7303V90.6013L61.1453 90.6334H62.9446C64.2784 90.6334 65.3598 91.7147 65.3598 93.0486C65.3598 94.3825 64.2784 95.4638 62.9446 95.4638H61.9401V95.187H56.9637C25.5514 101.99 2.0001 130.188 2.00009 163.611C2.00009 175.362 11.5263 185 23.2775 185C57.0479 185 85.076 160.415 90.4396 128.166H90.467V128C90.639 126.95 90.7869 125.892 90.9103 124.826H90.467V123.889C90.467 122.555 91.5483 121.474 92.8822 121.474C94.2161 121.474 95.2974 122.555 95.2974 123.889V125.06H94.8317C98.8081 158.815 127.516 185 162.34 185C174.072 185 183.583 175.481 183.583 163.749C183.583 129.311 158.016 100.822 124.827 96.2697V96.3986L124.619 96.3666H122.82C121.486 96.3666 120.405 95.2853 120.405 93.9514C120.405 92.6175 121.486 91.5362 122.82 91.5362ZM99.2974 127.987C104.498 158.097 130.744 181 162.34 181C162.771 181 163.198 180.984 163.621 180.953C165.999 177.54 166.191 173.006 164.165 169.41C163.9 168.524 163.534 167.672 163.071 166.87L163.344 166.599L163.343 166.598L164.308 165.641C165.086 166.158 165.921 166.567 166.794 166.864C170.748 169.36 175.993 168.911 179.498 165.468C179.513 165.314 179.527 165.16 179.538 165.005L179.392 164.85L179.558 164.686C179.574 164.375 179.583 164.063 179.583 163.749C179.583 131.654 155.991 105.051 125.207 100.367H122.82C119.277 100.367 116.405 97.4944 116.405 93.9514C116.405 90.4084 119.277 87.5362 122.82 87.5362H128.166V87.856C157.653 81.3629 179.764 54.8387 179.764 23.3895C179.764 23.0671 179.756 22.7467 179.738 22.4286C176.292 19.9622 171.697 19.7793 168.076 21.915C167.225 22.1839 166.406 22.5494 165.633 23.0062L165.363 22.7273L165.362 22.7285L164.407 21.7408C164.905 20.9722 165.304 20.1494 165.598 19.289C168.164 15.21 167.724 9.76031 164.224 6.14177L164.166 6.08182C164.053 6.07081 163.941 6.0609 163.828 6.05208L163.598 6.27474L163.353 6.02167C163.066 6.00728 162.777 6 162.487 6C130.616 6 104.179 29.2641 99.2307 59.7369H99.2974V64.0137C99.2974 67.5567 96.4252 70.4289 92.8822 70.4289C89.3392 70.4289 86.467 67.5567 86.467 64.0137V59.7369H86.5877C81.6862 29.2711 55.2731 6.00001 23.4249 6.00001C22.9939 6.00001 22.5667 6.01583 22.1436 6.04695C19.7659 9.45976 19.5731 13.9943 21.5991 17.5902C21.864 18.4758 22.2307 19.3284 22.6935 20.1304L22.4204 20.401L22.4215 20.4023L21.4562 21.3585C20.6784 20.8425 19.8437 20.4325 18.9702 20.1359C15.0162 17.6405 9.77119 18.0892 6.26631 21.5325C6.25111 21.6861 6.23792 21.8403 6.22678 21.9951L6.37289 22.1498L6.20675 22.3144C6.19015 22.6246 6.18173 22.937 6.18173 23.2513C6.18173 55.3461 29.773 81.9494 60.5576 86.6334H62.9446C66.4876 86.6334 69.3598 89.5056 69.3598 93.0486C69.3598 96.5916 66.4876 99.4638 62.9446 99.4638H57.5986V99.144C28.1112 105.637 6.0001 132.161 6.00009 163.611C6.00009 163.933 6.00891 164.253 6.02629 164.571C9.47282 167.038 14.0675 167.221 17.6887 165.085C18.5394 164.816 19.3588 164.451 20.1312 163.994L20.401 164.273L20.4023 164.271L21.3577 165.259C20.8595 166.028 20.4601 166.851 20.1661 167.711C17.6 171.79 18.0404 177.24 21.5405 180.858L21.5985 180.918C21.7109 180.929 21.8237 180.939 21.9367 180.948L22.1669 180.725L22.4117 180.978C22.6986 180.993 22.9872 181 23.2775 181C55.0078 181 81.3522 157.941 86.467 127.666V123.889C86.467 120.346 89.3392 117.474 92.8822 117.474C96.4252 117.474 99.2974 120.346 99.2974 123.889V127.987ZM167.181 6.65481C173.332 8.41078 178.106 13.5252 179.41 19.8829C175.714 17.9479 171.257 17.9498 167.557 19.9137C169.91 15.8118 169.797 10.6648 167.181 6.65481ZM178.923 168.491C177.205 174.51 172.302 179.186 166.154 180.576C168.008 176.893 167.995 172.468 166.09 168.791C170.055 171.121 175.022 171.032 178.923 168.491ZM18.5831 180.345C12.4327 178.589 7.65848 173.475 6.35465 167.117C10.05 169.052 14.5069 169.05 18.2079 167.086C15.8544 171.188 15.9674 176.335 18.5831 180.345ZM6.8418 18.5091C8.55901 12.4901 13.4629 7.81353 19.6103 6.42384C17.7561 10.1072 17.7691 14.5317 19.674 18.2089C15.7089 15.8795 10.7424 15.9681 6.8418 18.5091Z" fill="#E7E7E7"/>
<path d="M123.824 91.5362H125.324V90.0362H123.824V91.5362ZM123.824 91.813H122.324V93.313H123.824V91.813ZM128.801 91.813V93.313H128.961L129.118 93.279L128.801 91.813ZM94.8541 62.1741L93.364 62.0017L93.1704 63.6741H94.8541V62.1741ZM95.2973 62.1741H96.7973V60.6741H95.2973V62.1741ZM90.4669 61.94V60.44H88.9669V61.94H90.4669ZM90.9326 61.94V63.44H92.6197L92.4223 61.7645L90.9326 61.94ZM23.4248 2V3.5V2ZM2.18164 23.2513H0.681638H2.18164ZM60.9371 90.7303L60.7332 92.2164L62.4371 92.4502V90.7303H60.9371ZM60.9371 90.6013L61.1652 89.1188L59.4371 88.8529V90.6013H60.9371ZM61.1452 90.6334L60.9171 92.1159L61.0305 92.1334H61.1452V90.6334ZM61.9401 95.4638H60.4401V96.9638H61.9401V95.4638ZM61.9401 95.187H63.4401V93.687H61.9401V95.187ZM56.9636 95.187V93.687H56.803L56.6461 93.721L56.9636 95.187ZM2 163.611H0.5H2ZM90.4395 128.166V126.666H89.1684L88.9598 127.92L90.4395 128.166ZM90.4669 128.166V129.666H91.9669V128.166H90.4669ZM90.4669 128L88.9866 127.757L88.9669 127.878V128H90.4669ZM90.9102 124.826L92.4002 124.998L92.5938 123.326H90.9102V124.826ZM90.4669 124.826H88.9669V126.326H90.4669V124.826ZM95.2973 125.06V126.56H96.7973V125.06H95.2973ZM94.8316 125.06V123.56H93.1446L93.3419 125.235L94.8316 125.06ZM124.827 96.2697L125.031 94.7836L123.327 94.5498V96.2697H124.827ZM124.827 96.3986L124.599 97.8812L126.327 98.147V96.3986H124.827ZM124.619 96.3666L124.847 94.8841L124.734 94.8666H124.619V96.3666ZM99.2973 127.987H97.7973V128.115L97.8192 128.242L99.2973 127.987ZM163.621 180.953L163.731 182.449L164.443 182.397L164.852 181.811L163.621 180.953ZM164.165 169.41L162.728 169.84L162.776 170L162.858 170.146L164.165 169.41ZM163.071 166.87L162.015 165.804L161.194 166.618L161.772 167.619L163.071 166.87ZM163.344 166.599L164.4 167.664L165.437 166.636L164.437 165.572L163.344 166.599ZM163.343 166.598L162.287 165.532L161.249 166.56L162.25 167.625L163.343 166.598ZM164.308 165.641L165.137 164.392L164.12 163.716L163.252 164.576L164.308 165.641ZM166.794 166.864L167.595 165.596L167.445 165.501L167.277 165.444L166.794 166.864ZM179.498 165.468L180.549 166.538L180.937 166.156L180.991 165.615L179.498 165.468ZM179.538 165.005L181.034 165.112L181.081 164.454L180.628 163.975L179.538 165.005ZM179.391 164.85L178.336 163.785L177.295 164.815L178.301 165.88L179.391 164.85ZM179.558 164.686L180.613 165.751L181.025 165.344L181.055 164.766L179.558 164.686ZM125.207 100.367L125.432 98.8837L125.32 98.8666H125.207V100.367ZM128.166 87.5362H129.666V86.0362H128.166V87.5362ZM128.166 87.856H126.666V89.7222L128.488 89.3209L128.166 87.856ZM179.738 22.4286L181.236 22.3467L181.196 21.6277L180.611 21.2087L179.738 22.4286ZM168.076 21.915L168.528 23.3453L168.691 23.2938L168.838 23.2071L168.076 21.915ZM165.633 23.0062L164.555 24.0492L165.378 24.8997L166.397 24.2973L165.633 23.0062ZM165.363 22.7273L166.441 21.6843L165.397 20.6051L164.319 21.6503L165.363 22.7273ZM165.362 22.7285L164.284 23.7714L165.328 24.8508L166.406 23.8055L165.362 22.7285ZM164.407 21.7408L163.148 20.9249L162.499 21.9261L163.328 22.7836L164.407 21.7408ZM165.598 19.289L164.329 18.4903L164.235 18.6384L164.179 18.8039L165.598 19.289ZM164.224 6.14177L163.146 7.18461L163.146 7.18464L164.224 6.14177ZM164.166 6.08182L165.244 5.03898L164.861 4.64271L164.312 4.58897L164.166 6.08182ZM163.828 6.05208L163.944 4.55662L163.271 4.5041L162.785 4.97386L163.828 6.05208ZM163.597 6.27474L162.519 7.31758L163.562 8.39573L164.64 7.35297L163.597 6.27474ZM163.353 6.02167L164.431 4.97883L164.019 4.5532L163.428 4.52355L163.353 6.02167ZM99.2306 59.7369L97.75 59.4965L97.4674 61.2369H99.2306V59.7369ZM99.2973 59.7369H100.797V58.2369H99.2973V59.7369ZM86.4669 59.7369V58.2369H84.9669V59.7369H86.4669ZM86.5876 59.7369V61.2369H88.3482L88.0686 59.4987L86.5876 59.7369ZM23.4248 6V4.5V6ZM22.1435 6.04694L22.0335 4.55098L21.3211 4.60337L20.9128 5.18948L22.1435 6.04694ZM21.599 17.5902L23.0361 17.1603L22.9881 16.9998L22.9058 16.8538L21.599 17.5902ZM22.6934 20.1304L23.7492 21.1959L24.5705 20.3821L23.9926 19.3807L22.6934 20.1304ZM22.4203 20.401L21.3645 19.3355L20.3268 20.3637L21.3272 21.4282L22.4203 20.401ZM22.4215 20.4023L23.4771 21.4679L24.5151 20.4397L23.5145 19.375L22.4215 20.4023ZM21.4562 21.3585L20.6269 22.6084L21.6443 23.2835L22.5118 22.4242L21.4562 21.3585ZM18.9701 20.1359L18.1696 21.4044L18.3197 21.4991L18.4877 21.5562L18.9701 20.1359ZM6.26622 21.5325L5.215 20.4624L4.82707 20.8436L4.77351 21.3847L6.26622 21.5325ZM6.22669 21.9951L4.73056 21.8875L4.68321 22.5455L5.13616 23.0251L6.22669 21.9951ZM6.3728 22.1498L7.42848 23.2155L8.46894 22.1847L7.46333 21.1199L6.3728 22.1498ZM6.20665 22.3144L5.15097 21.2488L4.73974 21.6562L4.7088 22.2343L6.20665 22.3144ZM6.18164 23.2513H7.68164H6.18164ZM60.5575 86.6334L60.3319 88.1163L60.444 88.1334H60.5575V86.6334ZM57.5985 99.4638H56.0985V100.964H57.5985V99.4638ZM57.5985 99.144H59.0985V97.2778L57.2759 97.6791L57.5985 99.144ZM6 163.611H4.5H6ZM6.0262 164.571L4.52843 164.653L4.56773 165.372L5.15327 165.791L6.0262 164.571ZM17.6886 165.085L17.2366 163.655L17.0737 163.706L16.9266 163.793L17.6886 165.085ZM20.1311 163.994L21.2091 162.951L20.3863 162.1L19.3676 162.703L20.1311 163.994ZM20.4009 164.273L19.3229 165.316L20.3637 166.391L21.4417 165.353L20.4009 164.273ZM20.4022 164.271L21.4803 163.229L20.4396 162.153L19.3615 163.191L20.4022 164.271ZM21.3576 165.259L22.6163 166.075L23.2653 165.074L22.4358 164.216L21.3576 165.259ZM20.166 167.711L21.4356 168.51L21.5288 168.362L21.5853 168.196L20.166 167.711ZM21.5404 180.858L20.4623 181.901L20.4623 181.901L21.5404 180.858ZM21.5984 180.918L20.5203 181.961L20.9035 182.357L21.4521 182.411L21.5984 180.918ZM21.9366 180.948L21.8201 182.443L22.4938 182.496L22.9794 182.026L21.9366 180.948ZM22.1668 180.725L23.245 179.682L22.2021 178.604L21.124 179.647L22.1668 180.725ZM22.4116 180.978L21.3335 182.021L21.7451 182.447L22.3365 182.476L22.4116 180.978ZM86.4669 127.666L87.9459 127.916L87.9669 127.791V127.666H86.4669ZM179.41 19.8829L178.714 21.2117L181.514 22.6781L180.879 19.5816L179.41 19.8829ZM167.181 6.65481L167.593 5.21245L163.73 4.10953L165.925 7.47433L167.181 6.65481ZM167.556 19.9137L166.255 19.1672L163.669 23.6745L168.26 21.2387L167.556 19.9137ZM166.154 180.576L164.814 179.902L163.385 182.74L166.485 182.039L166.154 180.576ZM178.923 168.491L180.365 168.902L181.466 165.044L178.104 167.234L178.923 168.491ZM166.09 168.791L166.85 167.498L162.367 164.864L164.758 169.481L166.09 168.791ZM6.35456 167.117L7.0504 165.788L4.25011 164.322L4.88514 167.418L6.35456 167.117ZM18.583 180.345L18.1712 181.788L22.0342 182.89L19.8394 179.526L18.583 180.345ZM18.2078 167.086L19.5089 167.833L22.095 163.325L17.5047 165.761L18.2078 167.086ZM19.6102 6.42383L20.95 7.0983L22.3788 4.26012L19.2795 4.96075L19.6102 6.42383ZM6.8417 18.5091L5.39926 18.0976L4.29842 21.9561L7.66046 19.7659L6.8417 18.5091ZM19.6739 18.2089L18.9141 19.5022L23.3976 22.1362L21.0058 17.5189L19.6739 18.2089ZM123.824 90.0362H122.82V93.0362H123.824V90.0362ZM125.324 91.813V91.5362H122.324V91.813H125.324ZM128.801 90.313H123.824V93.313H128.801V90.313ZM182.264 23.3895C182.264 56.0963 159.214 83.6916 128.483 90.347L129.118 93.279C161.211 86.3287 185.264 57.527 185.264 23.3895H182.264ZM162.487 3.5C173.399 3.5 182.264 12.4564 182.264 23.3895H185.264C185.264 10.8201 175.077 0.5 162.487 0.5V3.5ZM96.3441 62.3466C100.179 29.2188 128.33 3.5 162.487 3.5V0.5C126.789 0.5 97.3716 27.3782 93.364 62.0017L96.3441 62.3466ZM95.2973 60.6741H94.8541V63.6741H95.2973V60.6741ZM96.7973 64.0137V62.1741H93.7973V64.0137H96.7973ZM92.8821 67.9289C95.0444 67.9289 96.7973 66.176 96.7973 64.0137H93.7973C93.7973 64.5192 93.3876 64.9289 92.8821 64.9289V67.9289ZM88.9669 64.0137C88.9669 66.176 90.7198 67.9289 92.8821 67.9289V64.9289C92.3767 64.9289 91.9669 64.5192 91.9669 64.0137H88.9669ZM88.9669 61.94V64.0137H91.9669V61.94H88.9669ZM90.9326 60.44H90.4669V63.44H90.9326V60.44ZM23.4248 3.5C57.4789 3.50001 85.5544 29.1071 89.4429 62.1155L92.4223 61.7645C88.358 27.2633 59.0179 0.500006 23.4248 0.500003V3.5ZM3.68164 23.2513C3.68164 12.3467 12.5217 3.5 23.4248 3.5V0.500003C10.8634 0.5 0.681639 10.6913 0.681638 23.2513H3.68164ZM61.1409 89.2443C28.6856 84.792 3.68163 56.9299 3.68164 23.2513H0.681638C0.681635 58.4486 26.8118 87.5631 60.7332 92.2164L61.1409 89.2443ZM59.4371 90.6013V90.7303H62.4371V90.6013H59.4371ZM61.3733 89.1508L61.1652 89.1188L60.709 92.0839L60.9171 92.1159L61.3733 89.1508ZM62.9445 89.1334H61.1452V92.1334H62.9445V89.1334ZM66.8597 93.0486C66.8597 90.8863 65.1068 89.1334 62.9445 89.1334V92.1334C63.4499 92.1334 63.8597 92.5431 63.8597 93.0486H66.8597ZM62.9445 96.9638C65.1068 96.9638 66.8597 95.2109 66.8597 93.0486H63.8597C63.8597 93.554 63.4499 93.9638 62.9445 93.9638V96.9638ZM61.9401 96.9638H62.9445V93.9638H61.9401V96.9638ZM60.4401 95.187V95.4638H63.4401V95.187H60.4401ZM56.9636 96.687H61.9401V93.687H56.9636V96.687ZM3.5 163.611C3.5 130.904 26.5498 103.308 57.2811 96.653L56.6461 93.721C24.5528 100.671 0.500003 129.473 0.5 163.611H3.5ZM23.2774 183.5C12.3649 183.5 3.5 174.544 3.5 163.611H0.5C0.499999 176.18 10.6876 186.5 23.2774 186.5V183.5ZM88.9598 127.92C83.7146 159.457 56.3023 183.5 23.2774 183.5V186.5C57.7932 186.5 86.4372 161.372 91.9192 128.412L88.9598 127.92ZM90.4395 129.666H90.4669V126.666H90.4395V129.666ZM91.9669 128.166V128H88.9669V128.166H91.9669ZM89.4201 124.653C89.2995 125.696 89.1548 126.731 88.9866 127.757L91.9472 128.242C92.123 127.169 92.2742 126.087 92.4002 124.998L89.4201 124.653ZM90.4669 126.326H90.9102V123.326H90.4669V126.326ZM91.9669 124.826V123.889H88.9669V124.826H91.9669ZM91.9669 123.889C91.9669 123.384 92.3767 122.974 92.8821 122.974V119.974C90.7198 119.974 88.9669 121.727 88.9669 123.889H91.9669ZM92.8821 122.974C93.3876 122.974 93.7973 123.384 93.7973 123.889H96.7973C96.7973 121.727 95.0444 119.974 92.8821 119.974V122.974ZM93.7973 123.889V125.06H96.7973V123.889H93.7973ZM94.8316 126.56H95.2973V123.56H94.8316V126.56ZM162.339 183.5C128.285 183.5 100.21 157.893 96.3213 124.884L93.3419 125.235C97.4063 159.737 126.746 186.5 162.339 186.5V183.5ZM182.083 163.749C182.083 174.653 173.243 183.5 162.339 183.5V186.5C174.901 186.5 185.083 176.309 185.083 163.749H182.083ZM124.623 97.7557C157.079 102.208 182.083 130.07 182.083 163.749H185.083C185.083 128.551 158.952 99.4369 125.031 94.7836L124.623 97.7557ZM126.327 96.3986V96.2697H123.327V96.3986H126.327ZM124.391 97.8492L124.599 97.8812L125.055 94.9161L124.847 94.8841L124.391 97.8492ZM122.82 97.8666H124.619V94.8666H122.82V97.8666ZM118.905 93.9514C118.905 96.1137 120.657 97.8666 122.82 97.8666V94.8666C122.314 94.8666 121.905 94.4569 121.905 93.9514H118.905ZM122.82 90.0362C120.657 90.0362 118.905 91.7891 118.905 93.9514H121.905C121.905 93.446 122.314 93.0362 122.82 93.0362V90.0362ZM97.8192 128.242C103.142 159.059 130.002 182.5 162.339 182.5V179.5C131.486 179.5 105.854 157.134 100.775 127.731L97.8192 128.242ZM162.339 182.5C162.807 182.5 163.271 182.483 163.731 182.449L163.511 179.457C163.124 179.486 162.734 179.5 162.339 179.5V182.5ZM164.852 181.811C167.561 177.921 167.779 172.767 165.472 168.674L162.858 170.146C164.604 173.244 164.436 177.159 162.39 180.096L164.852 181.811ZM165.602 168.98C165.304 167.983 164.891 167.023 164.37 166.12L161.772 167.619C162.176 168.32 162.496 169.065 162.728 169.84L165.602 168.98ZM164.127 167.935L164.4 167.664L162.288 165.533L162.015 165.804L164.127 167.935ZM164.437 165.572L164.436 165.57L162.25 167.625L162.251 167.626L164.437 165.572ZM164.398 167.663L165.364 166.707L163.252 164.576L162.287 165.532L164.398 167.663ZM163.479 166.891C164.364 167.479 165.315 167.946 166.312 168.284L167.277 165.444C166.526 165.189 165.808 164.836 165.137 164.392L163.479 166.891ZM165.994 168.133C170.527 170.994 176.54 170.476 180.549 166.538L178.447 164.398C175.446 167.345 170.97 167.725 167.595 165.596L165.994 168.133ZM180.991 165.615C181.007 165.448 181.022 165.281 181.034 165.112L178.041 164.897C178.031 165.039 178.019 165.179 178.005 165.32L180.991 165.615ZM180.628 163.975L180.482 163.82L178.301 165.88L178.447 166.035L180.628 163.975ZM180.447 165.916L180.613 165.751L178.502 163.62L178.336 163.785L180.447 165.916ZM181.055 164.766C181.073 164.429 181.083 164.09 181.083 163.749H178.083C178.083 164.036 178.075 164.322 178.06 164.605L181.055 164.766ZM181.083 163.749C181.083 130.902 156.939 103.678 125.432 98.8837L124.981 101.85C155.043 106.424 178.083 132.406 178.083 163.749H181.083ZM125.207 98.8666H122.82V101.867H125.207V98.8666ZM122.82 98.8666C120.105 98.8666 117.905 96.666 117.905 93.9514H114.905C114.905 98.3229 118.448 101.867 122.82 101.867V98.8666ZM117.905 93.9514C117.905 91.2368 120.105 89.0362 122.82 89.0362V86.0362C118.448 86.0362 114.905 89.5799 114.905 93.9514H117.905ZM122.82 89.0362H128.166V86.0362H122.82V89.0362ZM126.666 87.5362V87.856H129.666V87.5362H126.666ZM128.488 89.3209C158.654 82.6785 181.264 55.5526 181.264 23.3895H178.264C178.264 54.1248 156.653 80.0473 127.843 86.3911L128.488 89.3209ZM181.264 23.3895C181.264 23.0398 181.255 22.6921 181.236 22.3467L178.24 22.5105C178.256 22.8013 178.264 23.0944 178.264 23.3895H181.264ZM180.611 21.2087C176.679 18.3951 171.443 18.1874 167.314 20.623L168.838 23.2071C171.95 21.3713 175.904 21.5293 178.865 23.6484L180.611 21.2087ZM167.624 20.4848C166.664 20.788 165.74 21.2001 164.87 21.715L166.397 24.2973C167.071 23.8987 167.786 23.5798 168.528 23.3453L167.624 20.4848ZM166.711 21.9632L166.441 21.6843L164.285 23.7703L164.555 24.0492L166.711 21.9632ZM164.319 21.6503L164.318 21.6516L166.406 23.8055L166.407 23.8042L164.319 21.6503ZM166.44 21.6856L165.485 20.6979L163.328 22.7836L164.284 23.7714L166.44 21.6856ZM165.665 22.5567C166.23 21.6849 166.684 20.751 167.018 19.7742L164.179 18.8039C163.925 19.5477 163.579 20.2595 163.148 20.9249L165.665 22.5567ZM166.868 20.0877C169.793 15.4377 169.294 9.22551 165.302 5.09891L163.146 7.18464C166.154 10.2951 166.535 14.9823 164.329 18.4903L166.868 20.0877ZM165.302 5.09893L165.244 5.03898L163.088 7.12467L163.146 7.18461L165.302 5.09893ZM164.312 4.58897C164.19 4.57699 164.067 4.56621 163.944 4.55662L163.711 7.54754C163.814 7.55559 163.917 7.56464 164.02 7.57468L164.312 4.58897ZM162.785 4.97386L162.555 5.19652L164.64 7.35297L164.87 7.13031L162.785 4.97386ZM164.676 5.2319L164.431 4.97883L162.274 7.0645L162.519 7.31758L164.676 5.2319ZM163.428 4.52355C163.116 4.50791 162.802 4.5 162.487 4.5V7.5C162.752 7.5 163.016 7.50665 163.277 7.51978L163.428 4.52355ZM162.487 4.5C129.869 4.5 102.814 28.3092 97.75 59.4965L100.711 59.9774C105.544 30.2189 131.363 7.5 162.487 7.5V4.5ZM99.2306 61.2369H99.2973V58.2369H99.2306V61.2369ZM97.7973 59.7369V64.0137H100.797V59.7369H97.7973ZM97.7973 64.0137C97.7973 66.7283 95.5967 68.9289 92.8821 68.9289V71.9289C97.2536 71.9289 100.797 68.3852 100.797 64.0137H97.7973ZM92.8821 68.9289C90.1675 68.9289 87.9669 66.7283 87.9669 64.0137H84.9669C84.9669 68.3852 88.5107 71.9289 92.8821 71.9289V68.9289ZM87.9669 64.0137V59.7369H84.9669V64.0137H87.9669ZM86.4669 61.2369H86.5876V58.2369H86.4669V61.2369ZM88.0686 59.4987C83.0519 28.3173 56.0212 4.50001 23.4248 4.5V7.5C54.5249 7.50001 80.3202 30.2248 85.1066 59.9752L88.0686 59.4987ZM23.4248 4.5C22.9571 4.5 22.4931 4.51718 22.0335 4.55098L22.2535 7.5429C22.64 7.51448 23.0306 7.5 23.4248 7.5V4.5ZM20.9128 5.18948C18.2033 9.0785 17.9856 14.2326 20.2921 18.3265L22.9058 16.8538C21.1604 13.7559 21.3284 9.84099 23.3743 6.9044L20.9128 5.18948ZM20.1619 18.02C20.46 19.0166 20.8729 19.9766 21.3942 20.8801L23.9926 19.3807C23.5884 18.6802 23.2678 17.935 23.0361 17.1603L20.1619 18.02ZM21.6376 19.0648L21.3645 19.3355L23.476 21.4665L23.7492 21.1959L21.6376 19.0648ZM21.3272 21.4282L21.3284 21.4295L23.5145 19.375L23.5133 19.3738L21.3272 21.4282ZM21.3658 19.3366L20.4005 20.2929L22.5118 22.4242L23.4771 21.4679L21.3658 19.3366ZM22.2854 20.1086C21.4004 19.5214 20.4491 19.054 19.4525 18.7156L18.4877 21.5562C19.2381 21.811 19.9563 22.1635 20.6269 22.6084L22.2854 20.1086ZM19.7707 18.8674C15.2374 16.0064 9.22421 16.5237 5.215 20.4624L7.31744 22.6025C10.318 19.6546 14.7947 19.2745 18.1696 21.4044L19.7707 18.8674ZM4.77351 21.3847C4.75698 21.5517 4.74266 21.7193 4.73056 21.8875L7.72282 22.1028C7.733 21.9614 7.74504 21.8205 7.75892 21.6802L4.77351 21.3847ZM5.13616 23.0251L5.28227 23.1798L7.46333 21.1199L7.31722 20.9652L5.13616 23.0251ZM5.31712 21.0842L5.15097 21.2488L7.26234 23.3801L7.42848 23.2155L5.31712 21.0842ZM4.7088 22.2343C4.69077 22.5711 4.68164 22.9102 4.68164 23.2513H7.68164C7.68164 22.9637 7.68934 22.6781 7.70451 22.3946L4.7088 22.2343ZM4.68164 23.2513C4.68163 56.098 28.825 83.3224 60.3319 88.1163L60.7831 85.1504C30.7208 80.5763 7.68163 54.5941 7.68164 23.2513H4.68164ZM60.5575 88.1334H62.9445V85.1334H60.5575V88.1334ZM62.9445 88.1334C65.6591 88.1334 67.8597 90.334 67.8597 93.0486H70.8597C70.8597 88.6771 67.3159 85.1334 62.9445 85.1334V88.1334ZM67.8597 93.0486C67.8597 95.7632 65.6591 97.9638 62.9445 97.9638V100.964C67.3159 100.964 70.8597 97.42 70.8597 93.0486H67.8597ZM62.9445 97.9638H57.5985V100.964H62.9445V97.9638ZM59.0985 99.4638V99.144H56.0985V99.4638H59.0985ZM57.2759 97.6791C27.1105 104.322 4.5 131.447 4.5 163.611H7.5C7.5 132.875 29.1117 106.953 57.921 100.609L57.2759 97.6791ZM4.5 163.611C4.5 163.96 4.50956 164.308 4.52843 164.653L7.52396 164.49C7.50806 164.199 7.5 163.906 7.5 163.611H4.5ZM5.15327 165.791C9.08505 168.605 14.3209 168.813 18.4506 166.377L16.9266 163.793C13.814 165.629 9.8604 165.471 6.89913 163.352L5.15327 165.791ZM18.1406 166.515C19.0999 166.212 20.0238 165.8 20.8946 165.285L19.3676 162.703C18.6935 163.101 17.9786 163.42 17.2366 163.655L18.1406 166.515ZM19.053 165.037L19.3229 165.316L21.479 163.23L21.2091 162.951L19.053 165.037ZM21.4417 165.353L21.4429 165.352L19.3615 163.191L19.3602 163.192L21.4417 165.353ZM19.324 165.314L20.2794 166.302L22.4358 164.216L21.4803 163.229L19.324 165.314ZM20.0989 164.443C19.5338 165.315 19.0805 166.249 18.7466 167.226L21.5853 168.196C21.8396 167.452 22.185 166.74 22.6163 166.075L20.0989 164.443ZM18.8963 166.912C15.9711 171.562 16.4708 177.774 20.4623 181.901L22.6186 179.815C19.6099 176.705 19.2288 172.018 21.4356 168.51L18.8963 166.912ZM20.4623 181.901L20.5203 181.961L22.6766 179.875L22.6186 179.815L20.4623 181.901ZM21.4521 182.411C21.5745 182.423 21.6971 182.434 21.8201 182.443L22.0531 179.452C21.95 179.444 21.8472 179.435 21.7447 179.425L21.4521 182.411ZM22.9794 182.026L23.2096 181.803L21.124 179.647L20.8938 179.87L22.9794 182.026ZM21.0887 181.768L21.3335 182.021L23.4898 179.935L23.245 179.682L21.0887 181.768ZM22.3365 182.476C22.6483 182.492 22.9621 182.5 23.2774 182.5V179.5C23.0122 179.5 22.7486 179.493 22.4868 179.48L22.3365 182.476ZM23.2774 182.5C55.7518 182.5 82.7112 158.9 87.9459 127.916L84.9879 127.416C79.993 156.981 54.2635 179.5 23.2774 179.5V182.5ZM84.9669 123.889V127.666H87.9669V123.889H84.9669ZM92.8821 115.974C88.5107 115.974 84.9669 119.518 84.9669 123.889H87.9669C87.9669 121.175 90.1675 118.974 92.8821 118.974V115.974ZM100.797 123.889C100.797 119.518 97.2536 115.974 92.8821 115.974V118.974C95.5967 118.974 97.7973 121.175 97.7973 123.889H100.797ZM100.797 127.987V123.889H97.7973V127.987H100.797ZM180.879 19.5816C179.463 12.6761 174.281 7.1219 167.593 5.21245L166.769 8.09718C172.382 9.69966 176.749 14.3743 177.94 20.1843L180.879 19.5816ZM168.26 21.2387C171.522 19.5075 175.455 19.5055 178.714 21.2117L180.105 18.5541C175.973 16.3902 170.993 16.392 166.853 18.5887L168.26 21.2387ZM165.925 7.47433C168.23 11.0082 168.331 15.5501 166.255 19.1672L168.857 20.6602C171.489 16.0735 171.364 10.3214 168.438 5.8353L165.925 7.47433ZM166.485 182.039C173.17 180.528 178.498 175.446 180.365 168.902L177.48 168.079C175.912 173.574 171.433 177.845 165.823 179.113L166.485 182.039ZM164.758 169.481C166.441 172.729 166.453 176.646 164.814 179.902L167.494 181.251C169.563 177.14 169.55 172.208 167.422 168.101L164.758 169.481ZM178.104 167.234C174.682 169.463 170.327 169.541 166.85 167.498L165.331 170.084C169.784 172.701 175.362 172.601 179.741 169.748L178.104 167.234ZM4.88514 167.418C6.30131 174.324 11.4832 179.878 18.1712 181.788L18.9948 178.903C13.382 177.3 9.01546 172.626 7.82398 166.816L4.88514 167.418ZM17.5047 165.761C14.2423 167.492 10.3088 167.494 7.0504 165.788L5.65872 168.446C9.791 170.61 14.7713 170.608 18.9109 168.411L17.5047 165.761ZM19.8394 179.526C17.5342 175.992 17.4335 171.45 19.5089 167.833L16.9068 166.34C14.2751 170.926 14.4004 176.679 17.3267 181.165L19.8394 179.526ZM19.2795 4.96075C12.594 6.47207 7.26607 11.5542 5.39926 18.0976L8.28415 18.9206C9.85177 13.426 14.3315 9.15498 19.941 7.88691L19.2795 4.96075ZM21.0058 17.5189C19.3233 14.271 19.3111 10.354 20.95 7.0983L18.2704 5.74936C16.2009 9.86031 16.2147 14.7923 18.342 18.8988L21.0058 17.5189ZM7.66046 19.7659C11.0819 17.5371 15.437 17.4594 18.9141 19.5022L20.4337 16.9155C15.9807 14.2995 10.4027 14.3991 6.02294 17.2523L7.66046 19.7659Z" fill="#E7E7E7"/>
<path fill-rule="evenodd" clip-rule="evenodd" d="M93.5 78L97.2357 89.7643L109 93.5L97.2357 97.2357L93.5 109L89.7643 97.2357L78 93.5L89.7643 89.7643L93.5 78Z" fill="#E7E7E7"/>
</svg>
