<svg width="71" height="79" viewBox="0 0 71 79" fill="none" xmlns="http://www.w3.org/2000/svg">
<path fill-rule="evenodd" clip-rule="evenodd" d="M38.4749 63.4749L60.7487 41.201C62.1156 39.8342 62.1156 37.6181 60.7487 36.2513C59.3819 34.8844 57.1658 34.8844 55.799 36.2513L39.5 52.5502V0H32.5V52.5502L16.201 36.2513C14.8342 34.8844 12.6181 34.8844 11.2513 36.2513C9.88443 37.6181 9.88443 39.8342 11.2513 41.201L33.5251 63.4749C34.892 64.8417 37.108 64.8417 38.4749 63.4749ZM0 69V61H5V64C5 69.5229 9.47716 74 15 74H56C61.5228 74 66 69.5229 66 64V61H71V69C71 74.5229 66.5228 79 61 79H10C4.47716 79 0 74.5229 0 69Z" fill="#652F15"/>
</svg>
